<?xml version="1.0" encoding="UTF-8"?>
<svg id="Capa_2" xmlns="http://www.w3.org/2000/svg" viewBox="0 0 103.45 17.66">
  <defs>
    <style>
      .cls-1 {
        fill: #fff;
      }

      .cls-2 {
        fill: #1f315a;
      }
    </style>
  </defs>
  <g id="Capa_1-2" data-name="Capa_1">
    <g>
      <path class="cls-1" d="M27.85,11.16h-.58v-2.35h-2.62v2.35h-.58v-5h.58v2.13h2.62v-2.13h.58v5Z"/>
      <path class="cls-1" d="M32.36,9.28c0,.31-.04.58-.12.82-.08.24-.19.45-.35.61s-.33.29-.54.38c-.21.09-.45.13-.72.13-.25,0-.48-.04-.69-.13-.21-.09-.39-.21-.54-.38-.15-.17-.27-.37-.35-.61-.08-.24-.12-.52-.12-.82,0-.41.07-.76.21-1.05.14-.29.34-.51.6-.66.26-.15.57-.23.92-.23s.64.08.9.23c.26.15.46.37.6.66.14.29.21.64.21,1.04ZM29.51,9.28c0,.3.04.56.12.78.08.22.2.39.37.51.17.12.38.18.64.18s.47-.06.64-.18c.17-.12.29-.29.37-.51.08-.22.12-.48.12-.78s-.04-.56-.12-.77c-.08-.22-.2-.39-.37-.5s-.38-.18-.65-.18c-.39,0-.67.13-.86.39-.18.26-.27.61-.27,1.07Z"/>
      <path class="cls-1" d="M32.89,12.84c-.12,0-.22,0-.3-.03-.09-.02-.16-.04-.23-.06v-.46c.07.02.14.04.22.05s.15.02.25.02c.15,0,.28-.04.38-.13.1-.09.14-.24.14-.47v-4.35h.57v4.34c0,.23-.04.42-.11.59s-.18.29-.33.37-.34.13-.57.13ZM33.29,6.38c0-.13.03-.22.1-.28.06-.06.15-.09.24-.09s.17.03.24.09c.07.06.1.15.1.28s-.03.22-.1.28c-.07.06-.15.09-.24.09-.1,0-.18-.03-.24-.09-.07-.06-.1-.15-.1-.28Z"/>
      <path class="cls-1" d="M36.51,7.35c.45,0,.78.1.99.3s.32.52.32.96v2.55h-.41l-.11-.55h-.03c-.1.14-.21.25-.33.34-.11.09-.25.16-.39.21-.15.05-.33.07-.55.07-.23,0-.43-.04-.61-.12-.18-.08-.32-.2-.42-.36-.1-.16-.15-.37-.15-.62,0-.37.15-.66.44-.86s.75-.31,1.35-.33l.65-.03v-.23c0-.32-.07-.55-.21-.68s-.33-.19-.59-.19c-.2,0-.38.03-.56.09s-.35.12-.51.2l-.17-.43c.17-.09.36-.16.58-.22s.45-.09.69-.09ZM37.27,9.31l-.57.02c-.47.02-.8.09-.99.23-.19.13-.29.32-.29.57,0,.21.06.37.19.48s.3.15.52.15c.33,0,.6-.09.82-.28s.32-.46.32-.83v-.34Z"/>
      <path class="cls-1" d="M39.57,11.16h-.57v-5.32h.57v5.32Z"/>
      <path class="cls-1" d="M42.17,7.35c.45,0,.78.1.99.3s.32.52.32.96v2.55h-.41l-.11-.55h-.03c-.1.14-.21.25-.33.34-.11.09-.25.16-.39.21-.15.05-.33.07-.55.07-.23,0-.43-.04-.61-.12-.18-.08-.32-.2-.42-.36-.1-.16-.15-.37-.15-.62,0-.37.15-.66.44-.86s.75-.31,1.35-.33l.65-.03v-.23c0-.32-.07-.55-.21-.68s-.33-.19-.59-.19c-.2,0-.38.03-.56.09s-.35.12-.51.2l-.17-.43c.17-.09.36-.16.58-.22s.45-.09.69-.09ZM42.93,9.31l-.57.02c-.47.02-.8.09-.99.23-.19.13-.29.32-.29.57,0,.21.06.37.19.48s.3.15.52.15c.33,0,.6-.09.82-.28s.32-.46.32-.83v-.34Z"/>
      <path class="cls-1" d="M45.87,10.76c.09,0,.19,0,.29-.02.1-.02.18-.04.24-.06v.44c-.07.03-.16.05-.27.07-.12.02-.23.03-.34.03-.2,0-.38-.04-.54-.1s-.29-.19-.39-.35c-.1-.17-.15-.4-.15-.69v-2.22h-.53v-.28l.54-.22.23-.81h.34v.87h1.1v.44h-1.1v2.2c0,.24.05.41.16.53.11.12.25.17.43.17Z"/>
      <path class="cls-1" d="M48.6,7.34c.32,0,.59.07.82.21s.4.34.52.59c.12.25.18.55.18.89v.35h-2.59c0,.44.12.78.33,1,.21.23.51.35.9.35.24,0,.45-.02.63-.07.18-.04.37-.11.57-.19v.5c-.19.08-.38.15-.56.18-.19.04-.4.06-.66.06-.36,0-.67-.07-.94-.22-.27-.15-.48-.36-.62-.65-.15-.29-.22-.63-.22-1.05s.07-.75.2-1.05c.14-.29.33-.52.57-.68.25-.16.54-.24.87-.24ZM48.59,7.81c-.3,0-.54.1-.72.3s-.29.48-.32.83h1.98c0-.22-.04-.42-.1-.59-.07-.17-.17-.3-.31-.4-.14-.09-.31-.14-.53-.14Z"/>
      <path class="cls-1" d="M52.79,7.34c.08,0,.15,0,.24.01.08,0,.15.02.22.03l-.07.53c-.06-.02-.13-.03-.21-.04s-.15-.01-.21-.01c-.15,0-.29.03-.43.09-.13.06-.25.15-.35.26-.1.11-.18.25-.24.41-.06.16-.09.33-.09.53v2.01h-.57v-3.75h.47l.06.69h.02c.08-.14.17-.27.28-.38.11-.12.24-.21.38-.28.15-.07.31-.1.48-.1Z"/>
      <path class="cls-1" d="M54.24,6.01c.09,0,.17.03.24.09.07.06.1.15.1.28s-.03.22-.1.28-.15.09-.24.09c-.1,0-.18-.03-.24-.09-.07-.06-.1-.15-.1-.28s.03-.22.1-.28c.06-.06.15-.09.24-.09ZM54.51,7.41v3.75h-.57v-3.75h.57Z"/>
      <path class="cls-1" d="M57.11,7.35c.45,0,.78.1,1,.3.22.2.32.52.32.96v2.55h-.41l-.11-.55h-.03c-.11.14-.21.25-.33.34-.11.09-.25.16-.39.21-.15.05-.33.07-.55.07-.23,0-.43-.04-.61-.12-.18-.08-.32-.2-.42-.36-.1-.16-.15-.37-.15-.62,0-.37.15-.66.44-.86.3-.2.75-.31,1.35-.33l.65-.03v-.23c0-.32-.07-.55-.21-.68-.14-.13-.33-.19-.59-.19-.2,0-.38.03-.56.09s-.35.12-.51.2l-.17-.43c.17-.09.36-.16.58-.22s.45-.09.69-.09ZM57.87,9.31l-.57.02c-.47.02-.8.09-.99.23-.19.13-.29.32-.29.57,0,.21.07.37.2.48s.3.15.52.15c.33,0,.61-.09.82-.28s.32-.46.32-.83v-.34Z"/>
      <path class="cls-1" d="M61.45,6.16h1.55c.71,0,1.22.1,1.54.3.32.2.48.52.48.96,0,.3-.07.54-.21.73-.14.19-.33.31-.56.35v.03c.32.07.54.2.69.4.14.19.21.45.21.77,0,.46-.17.81-.49,1.07s-.78.38-1.34.38h-1.87v-5ZM62.51,8.14h.62c.29,0,.5-.04.62-.13s.19-.24.19-.44c0-.19-.07-.33-.21-.41-.14-.08-.36-.12-.67-.12h-.56v1.11ZM62.51,8.98v1.3h.69c.29,0,.51-.06.65-.17.14-.11.21-.28.21-.51,0-.41-.3-.62-.89-.62h-.66Z"/>
      <path class="cls-1" d="M68.78,11.16l-.14-.49h-.05c-.11.18-.27.31-.47.41s-.44.15-.7.15c-.45,0-.79-.12-1.01-.36-.23-.24-.34-.59-.34-1.04v-2.49h1.04v2.23c0,.28.05.48.15.62.1.14.25.21.47.21.29,0,.5-.1.63-.29.13-.19.2-.52.2-.97v-1.8h1.04v3.82h-.8Z"/>
      <path class="cls-1" d="M73.34,10.02c0,.39-.14.69-.41.9s-.68.31-1.22.31c-.28,0-.51-.02-.71-.06-.2-.04-.38-.09-.55-.17v-.86c.19.09.41.17.65.23.24.06.46.09.64.09.38,0,.57-.11.57-.33,0-.08-.02-.15-.07-.2-.05-.05-.14-.11-.26-.17-.12-.06-.29-.14-.49-.23-.29-.12-.51-.24-.65-.34s-.24-.23-.3-.36c-.06-.14-.09-.3-.09-.5,0-.34.13-.6.39-.79.26-.19.64-.28,1.12-.28s.91.1,1.34.3l-.31.75c-.19-.08-.37-.15-.54-.2-.17-.05-.34-.08-.51-.08-.31,0-.46.08-.46.25,0,.09.05.17.15.24.1.07.32.17.65.3.3.12.52.23.66.34.14.1.24.23.31.36.07.14.1.3.1.49Z"/>
      <path class="cls-1" d="M75.76,10.39c.18,0,.4-.04.66-.12v.78c-.26.12-.58.17-.96.17-.42,0-.72-.11-.91-.32s-.29-.53-.29-.95v-1.84h-.5v-.44l.57-.35.3-.81h.67v.81h1.07v.78h-1.07v1.84c0,.15.04.26.12.33.08.07.19.11.33.11Z"/>
      <path class="cls-1" d="M79.62,11.16l-.2-.52h-.03c-.17.22-.36.37-.54.46-.19.08-.43.13-.73.13-.37,0-.66-.11-.87-.31s-.32-.51-.32-.9c0-.41.14-.7.43-.9.28-.19.71-.3,1.28-.32l.66-.02v-.17c0-.39-.2-.58-.59-.58-.31,0-.66.09-1.08.28l-.34-.7c.44-.23.93-.35,1.46-.35s.91.11,1.18.33.41.56.41,1.02v2.55h-.73ZM79.31,9.39h-.4c-.3.02-.53.08-.68.18-.15.1-.22.25-.22.46,0,.29.17.44.51.44.24,0,.44-.07.58-.21.14-.14.22-.32.22-.55v-.31Z"/>
      <path class="cls-1" d="M84.84,11.16h-1.04v-2.23c0-.28-.05-.48-.14-.62-.09-.14-.24-.21-.44-.21-.27,0-.46.1-.58.29s-.18.52-.18.97v1.8h-1.04v-3.82h.8l.14.49h.06c.1-.18.25-.31.45-.41.19-.1.42-.15.67-.15.57,0,.96.19,1.16.56h.09c.1-.18.25-.32.45-.41s.42-.15.68-.15c.43,0,.76.11.98.33s.33.58.33,1.07v2.49h-1.05v-2.23c0-.28-.05-.48-.14-.62-.09-.14-.24-.21-.44-.21-.25,0-.45.09-.57.27-.13.18-.19.47-.19.87v1.92Z"/>
      <path class="cls-1" d="M90.72,11.16l-.2-.52h-.03c-.17.22-.36.37-.54.46-.19.08-.43.13-.73.13-.37,0-.66-.11-.87-.31s-.32-.51-.32-.9c0-.41.14-.7.43-.9.28-.19.71-.3,1.28-.32l.66-.02v-.17c0-.39-.2-.58-.59-.58-.31,0-.66.09-1.08.28l-.34-.7c.44-.23.93-.35,1.46-.35s.91.11,1.18.33.41.56.41,1.02v2.55h-.73ZM90.41,9.39h-.4c-.3.02-.53.08-.68.18-.15.1-.22.25-.22.46,0,.29.17.44.51.44.24,0,.44-.07.58-.21.14-.14.22-.32.22-.55v-.31Z"/>
      <path class="cls-1" d="M96.05,11.16h-1.04v-2.23c0-.28-.05-.48-.15-.62-.1-.14-.25-.21-.47-.21-.29,0-.5.1-.63.29-.13.19-.19.52-.19.97v1.8h-1.04v-3.82h.8l.14.49h.06c.12-.18.28-.32.48-.42.2-.09.44-.14.7-.14.45,0,.78.12,1.01.36.23.24.35.59.35,1.04v2.49Z"/>
      <path class="cls-1" d="M98.73,10.39c.18,0,.4-.04.66-.12v.78c-.26.12-.58.17-.96.17-.42,0-.72-.11-.91-.32s-.29-.53-.29-.95v-1.84h-.5v-.44l.57-.35.3-.81h.67v.81h1.07v.78h-1.07v1.84c0,.15.04.26.12.33.08.07.19.11.33.11Z"/>
      <path class="cls-1" d="M101.89,11.22c-.62,0-1.1-.17-1.44-.51-.35-.34-.52-.82-.52-1.44s.16-1.14.48-1.48c.32-.35.76-.52,1.33-.52s.96.15,1.26.46.45.73.45,1.27v.51h-2.46c.01.3.1.53.26.69.16.17.39.25.69.25.23,0,.45-.02.65-.07s.42-.12.64-.23v.81c-.18.09-.38.16-.58.2-.21.04-.46.07-.76.07ZM101.74,8c-.22,0-.39.07-.52.21-.12.14-.2.34-.21.6h1.46c0-.26-.07-.46-.2-.6-.13-.14-.31-.21-.53-.21Z"/>
    </g>
    <g>
      <polygon class="cls-2" points="2.29 7.09 12.99 .34 12.99 6.3 2.29 14.81 2.29 7.09"/>
      <polygon class="cls-1" points="12.99 .34 2.29 7.09 0 6.43 11.51 0 12.99 .34"/>
      <polygon class="cls-2" points="12.06 17.66 12.06 9.97 20.74 1.98 20.74 7.81 12.06 17.66"/>
      <polygon class="cls-1" points="20.74 1.98 15.54 6.77 12.99 6.3 2.29 14.81 12.06 17.66 12.06 9.97 14.7 10.73 22.45 2.4 20.74 1.98"/>
    </g>
  </g>
</svg>